name processed_emg_signals
nRows=41
nColumns=7
 
endheader
time	RGLTMED	RRF	RADDLONG	RST	RTA	RGM
1.96	0.0352298930654175	0.2508539575729641	0.077913296523301	0.0139271410136584	0.3038241776587277	0.266492540750493
1.961	0.0351037458000232	0.2495723120531512	0.0775286661105761	0.0135216627134437	0.3039705077750384	0.2655316963525276
1.962	0.0349877154111133	0.2482668012437318	0.0771391212932432	0.0131537377072783	0.304134975707401	0.2645766066732517
1.963	0.0348815348589389	0.2469377721899116	0.0767450674401047	0.0128250856327397	0.3043168049440213	0.2636290816673718
1.964	0.0347849358353711	0.2455855651006895	0.0763469159980901	0.0125374373330269	0.3045151026494198	0.2626909174270418
1.965	0.0346976490864402	0.2442105137367889	0.0759450839246727	0.0122925332866678	0.3047288618502262	0.2617638925051839
1.966	0.0346194047314793	0.2428129458341266	0.0755399931195783	0.0120921219861939	0.304956963948564	0.2608497642563628
1.967	0.0345499325786888	0.2413931835611146	0.0751320698563125	0.0119379582665066	0.3051981815578699	0.2599502652030655
1.968	0.0344889624371851	0.2399515440084257	0.0747217442143118	0.0118318015839805	0.3054511816552288	0.2590670994347465
1.969	0.0344362244255233	0.2384883397096335	0.0743094495123198	0.0117754142474605	0.3057145290435032	0.2582019390464893
1.97	0.0343914492767608	0.2370038791908866	0.0738956217438707	0.0117705596024914	0.3059866901154596	0.2573564206237022
1.971	0.0343543686400261	0.2354984675474844	0.0734806990155501	0.0118190001705026	0.3062660369111971	0.2565321417787569
1.972	0.0343247153785563	0.2339724070449653	0.0730651209888645	0.0119224957448229	0.3065508514589725	0.2557306577449513
1.973	0.03430222386414	0.2324259977419835	0.0726493283264493	0.0120828014456042	0.3068393303884313	0.2549534780325267
1.974	0.0342866302677871	0.2308595381319328	0.0722337621434219	0.0123016657360437	0.3071295898041979	0.2542020631507758
1.975	0.0342776728463699	0.2292733257999556	0.0718188634646809	0.0125808284023212	0.3074196704067024	0.2534778213995071
1.976	0.0342750922248926	0.2276676580919308	0.0714050726890169	0.0129220185000122	0.3077075428462596	0.2527821057325658
1.977	0.0342786316739458	0.2260428327920862	0.0709928290610356	0.013326952269823	0.3079911132953929	0.2521162106958942
1.978	0.0342880373818966	0.224399148805871	0.0705825701517795	0.0137973310256763	0.3082682292236085	0.2514813694426384
1.979	0.0343030587214043	0.2227369068446859	0.0701747313490478	0.0143348390182139	0.3085366853579386	0.2508787508280869
1.98	0.0343234485098131	0.2210564101090479	0.069769745358298	0.0149411412768634	0.3087942298117716	0.2503094565878015
1.981	0.0343489632630458	0.2193579649665607	0.0693680417149617	0.0156178814335215	0.3090385703636978	0.2497745186028172
1.982	0.0343793634425321	0.217641881620996	0.0689700463090029	0.0163666795310411	0.3092673808674366	0.2492748962563767
1.983	0.0344144136946954	0.2159084747686835	0.0685761809224339	0.0171891298196198	0.309478307773172	0.2488114738870192
1.984	0.0344538830824438	0.2141580642385977	0.0681868627805796	0.0180867985443112	0.3096689767398895	0.2483850583428873
1.985	0.0344975453080813	0.2123909756130465	0.0678025041177535	0.0190612217268898	0.3098369993173956	0.2479963766420395
1.986	0.0345451789270014	0.2106075408265664	0.0674235117579408	0.0201139029454153	0.3099799796758537	0.2476460737432254
1.987	0.034596567551568	0.2088080987415746	0.0670502867110514	0.0212463111148899	0.3100955213598025	0.2473347104315545
1.988	0.0346515000446892	0.2069929957002119	0.0666832237850695	0.0224598782724506	0.3101812340429662	0.2470627613236943
1.989	0.034709770702672	0.2051625860526537	0.0663227112145049	0.0237559973706287	0.3102347402598058	0.2468306129977594
1.99	0.0347711794270417	0.2033172326627456	0.0659691303053497	0.0251360200821874	0.3102536820893379	0.2466385622539692
1.991	0.0348355318850704	0.2014573073920051	0.0656228550967487	0.0266012546201234	0.3102357277664025	0.2464868145130313
1.992	0.0349026396587299	0.199583191563003	0.0652842520394689	0.028152963576382	0.3101785781953913	0.2463754823599864
1.993	0.0349723203816685	0.1976952764025953	0.0649536796911391	0.0297923617829603	0.3100799733414318	0.2463045842418267
1.994	0.0350443978637935	0.1957939634650028	0.0646314884281874	0.0315206141990496	0.3099376984745067	0.2462740433274895
1.995	0.0351187022029433	0.193879665034036	0.0643180201741986	0.0333388338280507	0.3097495902427781	0.2462836865388478
1.996	0.0351950698830329	0.1919528045033052	0.0640136081444542	0.0352480796681845	0.3095135425524036	0.246333243761064
1.997	0.0352733438581239	0.1900138167327741	0.0637185766062258	0.0372493547005305	0.3092275122329371	0.2464223472403281
1.998	0.0353533736218506	0.1880631483795176	0.0634332406544101	0.0393436039181924	0.3088895244694766	0.2465505311762846
1.999	0.0354350152616549	0.1861012582002675	0.0631579060020238	0.0415317124003658	0.30849767798546	0.2467172315156956
2.0	0.0355181314973411	0.184128617322888	0.0628928687850003	0.0438145034350103	0.308050149962749	0.2469217859531788
